<?xml version="1.0" encoding="UTF-8"?>
<!DOCTYPE svg PUBLIC "-//W3C//DTD SVG 1.1//EN" "http://www.w3.org/Graphics/SVG/1.1/DTD/svg11.dtd">
<svg version="1.1" xmlns="http://www.w3.org/2000/svg" xmlns:xlink="http://www.w3.org/1999/xlink" x="0" y="0" width="128" height="128" viewBox="0, 0, 128, 128">
  <g id="Background">
    <rect x="0" y="0" width="128" height="128" fill="#FFFFFF"/>
  </g>
  <defs>
    <linearGradient id="Gradient_1" gradientUnits="userSpaceOnUse" x1="123.734" y1="0.233" x2="155.66" y2="0.233" gradientTransform="matrix(0.707, 0.707, 0.707, -0.707, 0, 0)">
      <stop offset="0" stop-color="#000000" stop-opacity="0.495"/>
      <stop offset="0.835" stop-color="#F6E857" stop-opacity="0"/>
    </linearGradient>
    <linearGradient id="Gradient_2" gradientUnits="userSpaceOnUse" x1="77.461" y1="0.641" x2="95.112" y2="0.641" gradientTransform="matrix(0.707, 0.707, 0.707, -0.707, 0, 0)">
      <stop offset="0" stop-color="#000000" stop-opacity="0.495"/>
      <stop offset="0.835" stop-color="#F6E857" stop-opacity="0"/>
    </linearGradient>
    <linearGradient id="Gradient_3" gradientUnits="userSpaceOnUse" x1="40.07" y1="-0.086" x2="50.502" y2="-0.086" gradientTransform="matrix(0.707, 0.707, 0.707, -0.707, 0, 0)">
      <stop offset="0" stop-color="#000000" stop-opacity="0.495"/>
      <stop offset="0.835" stop-color="#F6E857" stop-opacity="0"/>
    </linearGradient>
  </defs>
  <g id="Layer_1">
    <path d="M0,0 L128,0 L128,128 L0,128 L0,0 z" fill="#FFF100"/>
    <path d="M76.643,98.343 L100.541,118.236 L119.909,100.227 L100.042,77.681 L76.643,98.343 z" fill="url(#Gradient_1)" display="none"/>
    <g>
      <g>
        <path d="M55.733,62.413 C51.591,62.413 48.233,59.056 48.233,54.913 C48.233,50.771 51.591,47.413 55.733,47.413 C59.875,47.413 63.233,50.771 63.233,54.913 C63.233,59.056 59.875,62.413 55.733,62.413 z" fill="#000000"/>
        <path d="M55.733,62.413 C51.591,62.413 48.233,59.056 48.233,54.913 C48.233,50.771 51.591,47.413 55.733,47.413 C59.875,47.413 63.233,50.771 63.233,54.913 C63.233,59.056 59.875,62.413 55.733,62.413 z" fill-opacity="0" stroke="#000000" stroke-width="3"/>
      </g>
      <g>
        <path d="M69.043,68.804 L60.915,60.676" fill-opacity="0" stroke="#000000" stroke-width="2" stroke-linejoin="round"/>
        <path d="M66.497,71.35 L75.831,75.592 L71.589,66.259 z" fill="#000000" fill-opacity="1" stroke="#000000" stroke-width="2" stroke-opacity="1"/>
      </g>
      <g>
        <path d="M88.591,102.482 C80.788,102.482 74.462,96.156 74.462,88.352 C74.462,80.549 80.788,74.223 88.591,74.223 C96.395,74.223 102.72,80.549 102.72,88.352 C102.72,96.156 96.395,102.482 88.591,102.482 z" fill="#000000"/>
        <path d="M88.591,102.482 C80.788,102.482 74.462,96.156 74.462,88.352 C74.462,80.549 80.788,74.223 88.591,74.223 C96.395,74.223 102.72,80.549 102.72,88.352 C102.72,96.156 96.395,102.482 88.591,102.482 z" fill-opacity="0" stroke="#000000" stroke-width="3"/>
      </g>
      <g>
        <path d="M40.443,40.682 L31.078,31.317" fill-opacity="0" stroke="#000000" stroke-width="2" stroke-linejoin="round"/>
        <path d="M37.897,43.228 L47.231,47.47 L42.989,38.136 z" fill="#000000" fill-opacity="1" stroke="#000000" stroke-width="2" stroke-opacity="1"/>
        <path d="M24.932,28.771 C24.932,26.783 26.544,25.171 28.532,25.171 C30.52,25.171 32.132,26.783 32.132,28.771 C32.132,30.759 30.52,32.371 28.532,32.371 C26.544,32.371 24.932,30.759 24.932,28.771" fill="#000000" fill-opacity="1" stroke="#000000" stroke-width="2" stroke-opacity="1"/>
      </g>
    </g>
    <path d="M48.902,60.645 L61.918,72.364 L72.678,61.83 L62.39,48.835 L48.902,60.645 z" fill="url(#Gradient_2)" display="none"/>
    <path d="M25.044,31.623 L32.922,38.498 L38.699,32.721 L31.854,25.518 L25.044,31.623 z" fill="url(#Gradient_3)" display="none"/>
  </g>
</svg>
