<?xml version="1.0" encoding="UTF-8"?>
<!DOCTYPE svg PUBLIC "-//W3C//DTD SVG 1.1//EN" "http://www.w3.org/Graphics/SVG/1.1/DTD/svg11.dtd">
<svg version="1.1" xmlns="http://www.w3.org/2000/svg" xmlns:xlink="http://www.w3.org/1999/xlink" x="0" y="0" width="128" height="128" viewBox="0, 0, 128, 128">
  <defs>
    <linearGradient id="Gradient_1" gradientUnits="userSpaceOnUse" x1="88.284" y1="0.07" x2="181.999" y2="0.07" gradientTransform="matrix(0.707, 0.707, -0.707, 0.707, 0, 0)">
      <stop offset="0" stop-color="#000000" stop-opacity="0.495"/>
      <stop offset="1" stop-color="#000000" stop-opacity="0"/>
    </linearGradient>
  </defs>
  <g id="Layer_1">
    <path d="M-0,-0 L128,-0 L128,128 L-0,128 L-0,-0 z" fill="#FFFF8D"/>
    <path d="M0,0 L128,0 L128,128 L0,128 z" fill="#8C9EFF"/>
    <path d="M93.032,37.23 L154.56,102.826 L101.397,155.989 L34.427,90.426 L93.032,37.23 z" fill="url(#Gradient_1)"/>
    <g>
      <path d="M36.492,36.5 L91.492,36.5 L91.492,64.938 L91.492,91.5 L36.492,91.5 L36.492,36.5 z" fill="#848484"/>
      <path d="M36.492,91.5 C31.533,91.5 27.514,79.188 27.514,64 C27.514,48.812 31.533,36.5 36.492,36.5 C41.45,36.5 45.47,48.812 45.47,64 C45.47,79.188 41.45,91.5 36.492,91.5 z" fill="#848484"/>
      <path d="M91.508,91.5 C86.55,91.5 82.53,79.188 82.53,64 C82.53,48.812 86.55,36.5 91.508,36.5 C96.467,36.5 100.486,48.812 100.486,64 C100.486,79.188 96.467,91.5 91.508,91.5 z" fill="#848484"/>
    </g>
    <g>
      <path d="M69.323,47.294 L84.609,47.294 L84.609,56.771 L84.609,65.623 L69.323,65.623 L69.323,47.294 z" fill="#8D8C8C"/>
      <path d="M69.323,65.623 C67.945,65.623 66.828,61.52 66.828,56.458 C66.828,51.397 67.945,47.294 69.323,47.294 C70.701,47.294 71.819,51.397 71.819,56.458 C71.819,61.52 70.701,65.623 69.323,65.623 z" fill="#8D8C8C"/>
      <path d="M84.614,65.623 C83.236,65.623 82.119,61.52 82.119,56.458 C82.119,51.397 83.236,47.294 84.614,47.294 C85.992,47.294 87.109,51.397 87.109,56.458 C87.109,61.52 85.992,65.623 84.614,65.623 z" fill="#8D8C8C"/>
    </g>
    <g>
      <path d="M43.46,47.294 L58.746,47.294 L58.746,56.771 L58.746,65.623 L43.46,65.623 L43.46,47.294 z" fill="#8D8C8C"/>
      <path d="M43.46,65.623 C42.082,65.623 40.965,61.52 40.965,56.458 C40.965,51.397 42.082,47.294 43.46,47.294 C44.838,47.294 45.956,51.397 45.956,56.458 C45.956,61.52 44.838,65.623 43.46,65.623 z" fill="#8D8C8C"/>
      <path d="M58.751,65.623 C57.373,65.623 56.256,61.52 56.256,56.458 C56.256,51.397 57.373,47.294 58.751,47.294 C60.129,47.294 61.246,51.397 61.246,56.458 C61.246,61.52 60.129,65.623 58.751,65.623 z" fill="#8D8C8C"/>
    </g>
    <g>
      <path d="M48.758,49.174 L53.763,49.174 L53.763,63.174 L48.758,63.174 L48.758,49.174 z" fill="#C2C2C2"/>
      <path d="M74.237,49.174 L79.242,49.174 L79.242,63.174 L74.237,63.174 L74.237,49.174 z" fill="#C2C2C2"/>
    </g>
    <g>
      <path d="M59.287,71.067 L68.713,71.067 L68.713,79.109 L59.287,79.109 L59.287,71.067 z" fill="#C2C2C2"/>
      <path d="M63.202,67.911 L64.798,67.911 C66.96,67.911 68.713,69.506 68.713,71.474 L68.713,71.474 C68.713,73.443 66.96,75.038 64.798,75.038 L63.202,75.038 C61.04,75.038 59.287,73.443 59.287,71.474 L59.287,71.474 C59.287,69.506 61.04,67.911 63.202,67.911 z" fill="#C2C2C2"/>
    </g>
  </g>
</svg>
