<?xml version="1.0" encoding="UTF-8"?>
<!DOCTYPE svg PUBLIC "-//W3C//DTD SVG 1.1//EN" "http://www.w3.org/Graphics/SVG/1.1/DTD/svg11.dtd">
<svg version="1.1" xmlns="http://www.w3.org/2000/svg" xmlns:xlink="http://www.w3.org/1999/xlink" x="0" y="0" width="128" height="128" viewBox="0, 0, 128, 128">
  <defs>
    <linearGradient id="Gradient_1" gradientUnits="userSpaceOnUse" x1="76.824" y1="-0.283" x2="191.935" y2="-0.283" gradientTransform="matrix(0.707, 0.707, -0.707, 0.707, 0, 0)">
      <stop offset="0" stop-color="#000000" stop-opacity="0.495"/>
      <stop offset="1" stop-color="#000000" stop-opacity="0"/>
    </linearGradient>
    <linearGradient id="Gradient_2" gradientUnits="userSpaceOnUse" x1="22.066" y1="64" x2="105.934" y2="64">
      <stop offset="0" stop-color="#B7E2FF" stop-opacity="0.3"/>
      <stop offset="0" stop-color="#B7E2FF" stop-opacity="0.45"/>
      <stop offset="0" stop-color="#B7E2FF" stop-opacity="0.3"/>
      <stop offset="1" stop-color="#B7E2FF"/>
    </linearGradient>
  </defs>
  <g id="Layer_1">
    <path d="M0,0 L128,0 L128,128 L0,128 z" fill="#8C9EFF"/>
    <path d="M168.376,103.061 L103.583,167.854 L22.066,86.579 L105.934,86.579 L105.934,41.421" fill="url(#Gradient_1)"/>
    <path d="M64,86.579 L64,91.924" fill-opacity="0" stroke="#EEEEEE" stroke-width="7"/>
    <g>
      <path d="M22.066,41.421 L105.934,41.421 L105.934,86.579 L22.066,86.579 L22.066,41.421 z" fill="url(#Gradient_2)"/>
      <path d="M22.066,41.421 L105.934,41.421 L105.934,86.579 L22.066,86.579 L22.066,41.421 z" fill-opacity="0" stroke="#686868" stroke-width="2"/>
    </g>
    <path d="M54.629,91.924 L73.371,91.924 L73.371,94.304 L54.629,94.304 L54.629,91.924 z" fill="#A6A6A6"/>
  </g>
</svg>
