<?xml version="1.0" encoding="UTF-8"?>
<!DOCTYPE svg PUBLIC "-//W3C//DTD SVG 1.1//EN" "http://www.w3.org/Graphics/SVG/1.1/DTD/svg11.dtd">
<svg version="1.1" xmlns="http://www.w3.org/2000/svg" xmlns:xlink="http://www.w3.org/1999/xlink" x="0" y="0" width="128" height="128" viewBox="0, 0, 128, 128">
  <defs>
    <linearGradient id="Gradient_1" gradientUnits="userSpaceOnUse" x1="90.171" y1="-0.729" x2="220.731" y2="-0.729" gradientTransform="matrix(0.707, 0.707, -0.707, 0.707, 0, 0)">
      <stop offset="0" stop-color="#000000" stop-opacity="0.495"/>
      <stop offset="1" stop-color="#000000" stop-opacity="0"/>
    </linearGradient>
    <radialGradient id="Gradient_2" gradientUnits="userSpaceOnUse" cx="64" cy="57.997" r="22.562">
      <stop offset="0" stop-color="#FFFFFF" stop-opacity="0.2"/>
      <stop offset="1" stop-color="#FFFFFF" stop-opacity="0.701"/>
    </radialGradient>
  </defs>
  <g id="Layer_1">
    <path d="M0,0 L128,0 L128,128 L0,128 z" fill="#8C9EFF"/>
    <path d="M82.411,45.11 L163.439,132.734 L138.461,173.7 L56.944,92.184 C56.944,92.184 67.687,84.125 77.284,76.171 C94.538,61.872 82.411,45.11 82.411,45.11 z" fill="url(#Gradient_1)"/>
    <g>
      <path d="M86.562,57.997 C86.562,70.457 76.46,80.559 64,80.559 C51.54,80.559 41.438,70.457 41.438,57.997 C41.438,45.536 51.54,35.435 64,35.435 C76.46,35.435 86.562,45.536 86.562,57.997 z" fill="url(#Gradient_2)" id="Dot"/>
      <path d="M71.437,92.565 L57.068,92.565 L50.552,76.171 L77.284,76.171 L71.437,92.565 z" fill="#7D7D7D"/>
      <path d="M56.5,80.598 L71.5,80.598" fill-opacity="0" stroke="#EEEEEE" stroke-width="1" stroke-linecap="round" id="Strope"/>
      <path d="M59,85.123 L69,85.123" fill-opacity="0" stroke="#EEEEEE" stroke-width="1" stroke-linecap="round" id="Strope"/>
      <path d="M61.5,89.534 L66.5,89.534" fill-opacity="0" stroke="#EEEEEE" stroke-width="1" stroke-linecap="round" id="Strope"/>
    </g>
  </g>
</svg>
