<?xml version="1.0" encoding="UTF-8"?>
<!DOCTYPE svg PUBLIC "-//W3C//DTD SVG 1.1//EN" "http://www.w3.org/Graphics/SVG/1.1/DTD/svg11.dtd">
<svg version="1.1" xmlns="http://www.w3.org/2000/svg" xmlns:xlink="http://www.w3.org/1999/xlink" x="0" y="0" width="128" height="128" viewBox="0, 0, 128, 128">
  <defs>
    <linearGradient id="Gradient_1" gradientUnits="userSpaceOnUse" x1="87.088" y1="0.257" x2="143.496" y2="0.257" gradientTransform="matrix(0.707, 0.707, -0.707, 0.707, 0, 0)">
      <stop offset="0" stop-color="#000000" stop-opacity="0.495"/>
      <stop offset="1" stop-color="#FF8A80" stop-opacity="0"/>
    </linearGradient>
    <linearGradient id="Gradient_2" gradientUnits="userSpaceOnUse" x1="90.075" y1="-0.894" x2="123.039" y2="-0.894" gradientTransform="matrix(0.707, 0.707, -0.707, 0.707, 0, 0)">
      <stop offset="0" stop-color="#515151" stop-opacity="0.495"/>
      <stop offset="0" stop-color="#515151" stop-opacity="0.495"/>
      <stop offset="0" stop-color="#515151" stop-opacity="0.495"/>
      <stop offset="1" stop-color="#FFFFFF" stop-opacity="0"/>
    </linearGradient>
    <linearGradient id="Gradient_3" gradientUnits="userSpaceOnUse" x1="93.304" y1="37.143" x2="128.917" y2="37.143" gradientTransform="matrix(0.707, 0.707, -0.707, 0.707, 0, 0)">
      <stop offset="0" stop-color="#000000" stop-opacity="0.495"/>
      <stop offset="1" stop-color="#FF8A80" stop-opacity="0"/>
    </linearGradient>
  </defs>
  <g id="Basis" transform="translate(0, 0)">
    <path d="M0,0 L128,0 L128,128 L0,128 z" fill="#FF8A80"/>
    <path d="M97.926,38.672 L128,74.934 L66.144,125.699 L31.59,91.571 L97.926,38.672 z" fill="url(#Gradient_1)"/>
    <path d="M91.565,96.133 L91.171,111.62 L77.956,103.535 z" fill="#FFFFFF"/>
    <path d="M64,106.5 C40.528,106.5 21.5,87.472 21.5,64 C21.5,40.528 40.528,21.5 64,21.5 C87.472,21.5 106.5,40.528 106.5,64 C106.5,87.472 87.472,106.5 64,106.5 z" fill="#FFFFFF"/>
  </g>
  <g id="Select_Last_Controlled_Item" transform="translate(0, 0)">
    <path d="M57.68,70.03 L69.863,57.523 L94.127,79.248 L82.039,91.964 L57.68,70.03 z" fill="url(#Gradient_2)"/>
    <path d="M50.161,108.115 C50.161,108.115 55.071,105.587 56.237,105.806 C68.498,108.115 78.582,103.963 78.582,103.963 L81.343,106.5 L81.343,126.69 L49.012,126.69 L50.161,108.115 z" fill="#FF8A80"/>
    <path d="M64,72.712 C59.188,72.712 55.288,68.812 55.288,64 C55.288,59.188 59.188,55.288 64,55.288 C68.812,55.288 72.712,59.188 72.712,64 C72.712,68.812 68.812,72.712 64,72.712 z" fill="#3F51B5"/>
    <path d="M41.005,111.912 C46.752,111.912 51.985,109.708 55.904,106.1 C60.27,102.079 63.005,96.315 63.005,89.912 C63.005,77.762 53.156,67.912 41.005,67.912 C28.855,67.912 19.005,77.762 19.005,89.912 C19.005,102.062 28.855,111.912 41.005,111.912 z" fill="#FF8A80"/>
    <path d="M54.07,77.882 L78.582,103.734 L53.505,126.69 L29.178,110.421 L54.07,77.882 z" fill="url(#Gradient_3)"/>
    <path d="M29.178,103.734 L29.347,110.379 L35.017,106.91 z" fill="#FFFFFF"/>
    <path d="M41.005,108.115 C51.076,108.115 59.24,99.965 59.24,89.912 C59.24,79.858 51.076,71.709 41.005,71.709 C30.934,71.709 22.77,79.858 22.77,89.912 C22.77,99.965 30.934,108.115 41.005,108.115 z" fill="#FFFFFF"/>
    <g>
      <path d="M40.334,81.705 L40.334,91.458" fill-opacity="0" stroke="#3F51B5" stroke-width="3"/>
      <path d="M38.826,92.673 L47.625,92.673" fill-opacity="0" stroke="#3F51B5" stroke-width="3"/>
    </g>
  </g>
</svg>
