<?xml version="1.0" encoding="UTF-8"?>
<!DOCTYPE svg PUBLIC "-//W3C//DTD SVG 1.1//EN" "http://www.w3.org/Graphics/SVG/1.1/DTD/svg11.dtd">
<svg version="1.1" xmlns="http://www.w3.org/2000/svg" xmlns:xlink="http://www.w3.org/1999/xlink" x="0" y="0" width="128" height="128" viewBox="0, 0, 128, 128">
  <defs>
    <linearGradient id="Gradient_1" gradientUnits="userSpaceOnUse" x1="87.088" y1="0.257" x2="143.496" y2="0.257" gradientTransform="matrix(0.707, 0.707, -0.707, 0.707, 0, 0)">
      <stop offset="0" stop-color="#000000" stop-opacity="0.495"/>
      <stop offset="1" stop-color="#FF8A80" stop-opacity="0"/>
    </linearGradient>
    <linearGradient id="Gradient_2" gradientUnits="userSpaceOnUse" x1="90.666" y1="13.616" x2="123.629" y2="13.616" gradientTransform="matrix(0.707, 0.707, -0.707, 0.707, 0, 0)">
      <stop offset="0" stop-color="#515151" stop-opacity="0.495"/>
      <stop offset="0" stop-color="#515151" stop-opacity="0.495"/>
      <stop offset="0" stop-color="#515151" stop-opacity="0.495"/>
      <stop offset="1" stop-color="#FFFFFF" stop-opacity="0"/>
    </linearGradient>
    <linearGradient id="Gradient_3" gradientUnits="userSpaceOnUse" x1="75.816" y1="-1.233" x2="108.78" y2="-1.233" gradientTransform="matrix(0.707, 0.707, -0.707, 0.707, 0, 0)">
      <stop offset="0" stop-color="#515151" stop-opacity="0.495"/>
      <stop offset="0" stop-color="#515151" stop-opacity="0.495"/>
      <stop offset="0" stop-color="#515151" stop-opacity="0.495"/>
      <stop offset="1" stop-color="#FFFFFF" stop-opacity="0"/>
    </linearGradient>
    <linearGradient id="Gradient_4" gradientUnits="userSpaceOnUse" x1="104.808" y1="-0.526" x2="137.771" y2="-0.526" gradientTransform="matrix(0.707, 0.707, -0.707, 0.707, 0, 0)">
      <stop offset="0" stop-color="#515151" stop-opacity="0.495"/>
      <stop offset="0" stop-color="#515151" stop-opacity="0.495"/>
      <stop offset="0" stop-color="#515151" stop-opacity="0.495"/>
      <stop offset="1" stop-color="#FFFFFF" stop-opacity="0"/>
    </linearGradient>
    <linearGradient id="Gradient_5" gradientUnits="userSpaceOnUse" x1="89.959" y1="-15.375" x2="122.922" y2="-15.375" gradientTransform="matrix(0.707, 0.707, -0.707, 0.707, 0, 0)">
      <stop offset="0" stop-color="#515151" stop-opacity="0.495"/>
      <stop offset="0" stop-color="#515151" stop-opacity="0.495"/>
      <stop offset="0" stop-color="#515151" stop-opacity="0.495"/>
      <stop offset="1" stop-color="#FFFFFF" stop-opacity="0"/>
    </linearGradient>
  </defs>
  <g id="Basis" transform="translate(0, 0)">
    <path d="M0,0 L128,0 L128,128 L0,128 z" fill="#FF8A80"/>
    <path d="M97.926,38.672 L128,74.934 L66.144,125.699 L31.59,91.571 L97.926,38.672 z" fill="url(#Gradient_1)"/>
    <path d="M91.565,96.133 L91.171,111.62 L77.956,103.535 z" fill="#FFFFFF"/>
    <path d="M64,106.5 C40.528,106.5 21.5,87.472 21.5,64 C21.5,40.528 40.528,21.5 64,21.5 C87.472,21.5 106.5,40.528 106.5,64 C106.5,87.472 87.472,106.5 64,106.5 z" fill="#FFFFFF"/>
  </g>
  <g id="Select_Item_Group" transform="translate(0, 0)">
    <g>
      <path d="M47.837,80.708 L60.02,68.2 L84.284,89.926 L72.196,102.642 L47.837,80.708 z" fill="url(#Gradient_2)"/>
      <path d="M47.837,59.708 L60.02,47.2 L84.284,68.926 L72.196,81.642 L47.837,59.708 z" fill="url(#Gradient_3)"/>
      <path d="M67.837,80.708 L80.02,68.2 L104.284,89.926 L92.196,102.642 L67.837,80.708 z" fill="url(#Gradient_4)"/>
      <path d="M67.837,59.708 L80.02,47.2 L104.284,68.926 L92.196,81.642 L67.837,59.708 z" fill="url(#Gradient_5)"/>
    </g>
    <g>
      <path d="M54,83.212 C49.188,83.212 45.288,79.312 45.288,74.5 C45.288,69.688 49.188,65.788 54,65.788 C58.812,65.788 62.712,69.688 62.712,74.5 C62.712,79.312 58.812,83.212 54,83.212 z" fill="#3F51B5"/>
      <path d="M54,62.212 C49.188,62.212 45.288,58.312 45.288,53.5 C45.288,48.688 49.188,44.788 54,44.788 C58.812,44.788 62.712,48.688 62.712,53.5 C62.712,58.312 58.812,62.212 54,62.212 z" fill="#3F51B5"/>
      <path d="M74,83.212 C69.188,83.212 65.288,79.312 65.288,74.5 C65.288,69.688 69.188,65.788 74,65.788 C78.812,65.788 82.712,69.688 82.712,74.5 C82.712,79.312 78.812,83.212 74,83.212 z" fill="#3F51B5"/>
      <path d="M74,62.212 C69.188,62.212 65.288,58.312 65.288,53.5 C65.288,48.688 69.188,44.788 74,44.788 C78.812,44.788 82.712,48.688 82.712,53.5 C82.712,58.312 78.812,62.212 74,62.212 z" fill="#3F51B5"/>
    </g>
  </g>
</svg>
