<?xml version="1.0" encoding="UTF-8"?>
<!DOCTYPE svg PUBLIC "-//W3C//DTD SVG 1.1//EN" "http://www.w3.org/Graphics/SVG/1.1/DTD/svg11.dtd">
<svg version="1.1" xmlns="http://www.w3.org/2000/svg" xmlns:xlink="http://www.w3.org/1999/xlink" x="0" y="0" width="128" height="128" viewBox="0, 0, 128, 128">
  <defs>
    <linearGradient id="Gradient_1" gradientUnits="userSpaceOnUse" x1="81.371" y1="10.432" x2="202.935" y2="10.432" gradientTransform="matrix(0.707, 0.707, -0.707, 0.707, 0, 0)">
      <stop offset="0" stop-color="#000000" stop-opacity="0.495"/>
      <stop offset="1" stop-color="#000000" stop-opacity="0"/>
    </linearGradient>
  </defs>
  <g id="Layer_1">
    <path d="M0,0 L128,0 L128,128 L0,128 z" fill="#FF8A80"/>
    <path d="M89.955,25.12 L173.28,113.713 L62.957,150.488 L23.05,117.391 L89.955,25.12 z" fill="url(#Gradient_1)"/>
    <path d="M45.104,75.966 L51.539,65.938 C51.539,65.938 61.954,58.493 61.073,53.121 C60.009,46.644 59.477,35.677 60.6,34.772 C67.686,29.063 65.932,47.157 68.402,47.21 C69.918,47.242 72.264,43.109 76.72,37.296 C82.367,29.928 86.051,20.879 90.033,25.553 C91.911,27.757 91.719,27.56 82.493,40.686 C73.903,52.908 78.121,50.459 79.338,49.134 C81.115,47.198 84.241,49.569 82.981,51.494 C81.91,53.13 81.022,53.948 81.507,54.029 C82.189,54.143 82.953,51.965 83.971,51.872 C85.864,51.7 86.521,52.329 86.946,53.912 C87.109,54.519 84.472,55.861 85.432,56.839 C85.897,57.313 87.041,55.542 88.012,54.73 C88.902,53.986 91.624,56.028 90.786,57.701 C82.365,74.509 68.141,83.468 66.971,83.206 C45.48,78.392 51.288,81.88 51.288,81.88 L45.104,75.966 z" fill="#FFE0B2"/>
    <path d="M46.598,67.991 L69.263,84.975 L38.97,120.447 L29.261,150.488 L-1.713,132.698 L23.05,100.447 L46.598,67.991 z" fill="#80DEEA"/>
    <path d="M46.413,60.959 L75.367,84.798 L71.741,88.015 L43.514,67.452 L46.413,60.959 z" fill="#28BDD0"/>
    <path d="M88.416,25.535 L89.282,26.166 C90.192,26.828 90.431,28.049 89.817,28.892 L89.817,28.892 C89.202,29.735 87.968,29.881 87.059,29.219 L86.192,28.588 C85.283,27.925 85.044,26.705 85.658,25.862 L85.658,25.862 C86.272,25.019 87.507,24.873 88.416,25.535 z" fill="#FFFAF4" fill-opacity="0.714"/>
    <path d="M63.711,35.2 L64.018,35.599 C64.34,36.019 63.873,36.752 62.974,37.237 L62.974,37.237 C62.075,37.722 61.085,37.775 60.762,37.355 L60.455,36.955 C60.133,36.536 60.6,35.802 61.499,35.318 L61.499,35.318 C62.398,34.833 63.388,34.78 63.711,35.2 z" fill="#FFFAF4" fill-opacity="0.714"/>
    <path d="M81.429,35.522 L82.204,36.087 C83.018,36.679 83.108,37.941 82.406,38.905 L82.406,38.905 C81.704,39.868 80.476,40.169 79.662,39.576 L78.887,39.011 C78.073,38.418 77.983,37.157 78.685,36.193 L78.685,36.193 C79.386,35.23 80.615,34.929 81.429,35.522 z" fill="#F5D099"/>
    <path d="M80.901,36.233 L81.737,36.841 C82.613,37.48 83.182,38.192 83.008,38.433 L83.008,38.433 C82.833,38.673 81.98,38.349 81.103,37.711 L80.268,37.102 C79.391,36.463 78.822,35.751 78.997,35.511 L78.997,35.511 C79.172,35.271 80.024,35.594 80.901,36.233 z" fill="#FFE0B2"/>
    <path d="M79.815,37.795 L80.681,38.425 C81.589,39.087 82.183,39.818 82.008,40.058 L82.008,40.058 C81.833,40.298 80.955,39.956 80.047,39.295 L79.182,38.664 C78.273,38.003 77.679,37.272 77.854,37.032 L77.854,37.032 C78.029,36.791 78.907,37.133 79.815,37.795 z" fill="#FFE0B2"/>
    <path d="M62.767,39.652 L63.724,39.721 C64.728,39.794 65.472,40.816 65.386,42.005 L65.386,42.005 C65.3,43.194 64.416,44.099 63.412,44.027 L62.455,43.958 C61.452,43.885 60.707,42.862 60.793,41.673 L60.793,41.673 C60.879,40.484 61.763,39.579 62.767,39.652 z" fill="#F5D099"/>
    <path d="M62.695,40.534 L63.726,40.609 C64.808,40.687 65.668,40.991 65.647,41.287 L65.647,41.287 C65.625,41.583 64.731,41.76 63.649,41.681 L62.618,41.607 C61.536,41.529 60.676,41.225 60.697,40.929 L60.697,40.929 C60.719,40.632 61.613,40.456 62.695,40.534 z" fill="#FFE0B2"/>
    <path d="M62.6,42.434 L63.668,42.512 C64.789,42.593 65.68,42.899 65.658,43.195 L65.658,43.195 C65.637,43.491 64.711,43.665 63.59,43.584 L62.522,43.507 C61.402,43.426 60.51,43.12 60.532,42.824 L60.532,42.824 C60.553,42.528 61.479,42.353 62.6,42.434 z" fill="#FFE0B2"/>
    <g>
      <path d="M50.941,23.195 C33.042,37.484 7.223,67.903 53.85,51.281" fill-opacity="0" stroke="#000000" stroke-width="2" stroke-dasharray="4,4" stroke-linejoin="round"/>
      <path d="M52.909,26.209 L58.978,17.946 L48.972,20.181 z" fill="#000000" fill-opacity="1" stroke="#000000" stroke-width="2" stroke-opacity="1"/>
    </g>
  </g>
</svg>
