<?xml version="1.0" encoding="UTF-8"?>
<!DOCTYPE svg PUBLIC "-//W3C//DTD SVG 1.1//EN" "http://www.w3.org/Graphics/SVG/1.1/DTD/svg11.dtd">
<svg version="1.1" xmlns="http://www.w3.org/2000/svg" xmlns:xlink="http://www.w3.org/1999/xlink" x="0" y="0" width="128" height="128" viewBox="0, 0, 128, 128">
  <defs>
    <linearGradient id="Gradient_1" gradientUnits="userSpaceOnUse" x1="-8.366" y1="101.608" x2="155.556" y2="101.608" gradientTransform="matrix(1, 0, -0, 1, 0, 0)">
      <stop offset="0" stop-color="#000000" stop-opacity="0.495"/>
      <stop offset="1" stop-color="#000000" stop-opacity="0"/>
    </linearGradient>
  </defs>
  <g id="Layer_1">
    <path d="M0,0 L128,0 L128,128 L0,128 z" fill="#FF8A80"/>
    <path d="M92.996,28.601 L155.556,132.182 L9.663,174.616 L-8.366,122.993 L92.996,28.601 z" fill="url(#Gradient_1)"/>
    <g>
      <path d="M59.259,41.532 C77.601,4.826 77.295,26.273 86.225,26.529 C108.972,27.181 77.163,48.331 76.288,48.091 C59.465,43.466 63.928,46.447 63.928,46.447 L59.259,41.532 z" fill="#FFE0B2"/>
      <path d="M75.624,51.348 L59.596,36.91 L34.98,65.293 L23.978,73.726 L-4.442,113.728 L-4.442,126.492 L9.253,131.899 L34.584,95.307 L55.68,69.8 L75.624,51.348 z" fill="#80DEEA"/>
      <path d="M81.377,49.765 L58.103,31.739 L56.245,35.097 L76.875,53.147 L81.377,49.765 z" fill="#28BDD0"/>
    </g>
    <g>
      <path d="M58.747,75.753 C34.31,42.79 38.336,63.858 29.585,65.661 C7.297,70.252 42.296,85.557 43.115,85.169 C58.88,77.693 55.002,81.404 55.002,81.404 L58.747,75.753 z" fill="#FFE0B2"/>
      <path d="M44.335,88.261 L57.613,71.259 C82.452,91.421 80.022,87.966 86.783,94.936 C93.543,101.907 92.303,105.637 88.731,110.159 C85.16,114.681 76.683,121.616 76.683,121.616 L58.194,141.993 L42.641,149.749 L31.217,138.076 C64.918,105.178 65.445,106.94 67.18,102.97 C68.915,99 44.335,88.261 44.335,88.261 z" fill="#80DEEA"/>
      <path d="M38.394,87.702 L58.184,65.908 L60.598,68.893 L43.415,90.25 L38.394,87.702 z" fill="#28BDD0"/>
    </g>
  </g>
</svg>
