<?xml version="1.0" encoding="UTF-8"?>
<!DOCTYPE svg PUBLIC "-//W3C//DTD SVG 1.1//EN" "http://www.w3.org/Graphics/SVG/1.1/DTD/svg11.dtd">
<svg version="1.1" xmlns="http://www.w3.org/2000/svg" xmlns:xlink="http://www.w3.org/1999/xlink" x="0" y="0" width="128" height="128" viewBox="0, 0, 128, 128">
  <defs>
    <linearGradient id="Gradient_1" gradientUnits="userSpaceOnUse" x1="83.861" y1="18.072" x2="199.938" y2="18.072" gradientTransform="matrix(0.707, 0.707, -0.707, 0.707, 0, 0)">
      <stop offset="0" stop-color="#000000" stop-opacity="0.495"/>
      <stop offset="1" stop-color="#000000" stop-opacity="0"/>
    </linearGradient>
  </defs>
  <g id="Layer_1">
    <path d="M0,0 L128,0 L128,128 L0,128 z" fill="#FF8A80"/>
    <path d="M94.493,43.384 L146.36,136.394 L54.183,156.408 L32.946,85.651 L94.493,43.384 z" fill="url(#Gradient_1)"/>
    <g>
      <g>
        <path d="M64,105.722 C44.25,105.722 28.24,87.042 28.24,64 C28.24,40.958 44.25,22.278 64,22.278 C83.75,22.278 99.76,40.958 99.76,64 C99.76,87.042 83.75,105.722 64,105.722 z" fill="#FFE0B2"/>
        <path d="M64,105.722 C44.25,105.722 28.24,87.042 28.24,64 C28.24,40.958 44.25,22.278 64,22.278 C83.75,22.278 99.76,40.958 99.76,64 C99.76,87.042 83.75,105.722 64,105.722 z" fill-opacity="0" stroke="#F5D099" stroke-width="3"/>
      </g>
      <path d="M64,22.278 C43.822,66.15 64,105.722 64,105.722" fill-opacity="0" stroke="#F5D099" stroke-width="2"/>
      <path d="M99.76,64 C44.123,80.724 28.24,66.15 28.24,66.15" fill-opacity="0" stroke="#F5D099" stroke-width="2"/>
      <path d="M69.867,63.529 C65.694,63.529 62.312,59.023 62.312,53.464 C62.312,47.904 65.694,43.398 69.867,43.398 C74.04,43.398 77.423,47.904 77.423,53.464 C77.423,59.023 74.04,63.529 69.867,63.529 z" fill="#FFFFFF" fill-opacity="0.428"/>
      <path d="M45.811,61.316 C42.596,61.316 39.989,57.801 39.989,53.464 C39.989,49.126 42.596,45.611 45.811,45.611 C49.026,45.611 51.632,49.126 51.632,53.464 C51.632,57.801 49.026,61.316 45.811,61.316 z" fill="#FFFFFF" fill-opacity="0.428"/>
    </g>
    <g>
      <path d="M50.946,31.684 C57.435,-2.849 79.676,21.602 82.381,22.278" fill-opacity="0" stroke="#000000" stroke-width="2" stroke-dasharray="4,4" stroke-linejoin="round"/>
      <path d="M47.371,31.255 L49.801,41.215 L54.52,32.113 z" fill="#000000" fill-opacity="1" stroke="#000000" stroke-width="2" stroke-opacity="1"/>
    </g>
  </g>
</svg>
