<?xml version="1.0" encoding="UTF-8"?>
<!DOCTYPE svg PUBLIC "-//W3C//DTD SVG 1.1//EN" "http://www.w3.org/Graphics/SVG/1.1/DTD/svg11.dtd">
<svg version="1.1" xmlns="http://www.w3.org/2000/svg" xmlns:xlink="http://www.w3.org/1999/xlink" x="0" y="0" width="128" height="128" viewBox="0, 0, 128, 128">
  <defs>
    <linearGradient id="Gradient_1" gradientUnits="userSpaceOnUse" x1="87.088" y1="0.257" x2="143.496" y2="0.257" gradientTransform="matrix(0.707, 0.707, -0.707, 0.707, 0, 0)">
      <stop offset="0" stop-color="#000000" stop-opacity="0.495"/>
      <stop offset="1" stop-color="#FF8A80" stop-opacity="0"/>
    </linearGradient>
    <linearGradient id="Gradient_2" gradientUnits="userSpaceOnUse" x1="90.068" y1="-0.648" x2="123.102" y2="-0.648" gradientTransform="matrix(0.707, 0.707, -0.707, 0.707, 0, 0)">
      <stop offset="0" stop-color="#515151" stop-opacity="0.495"/>
      <stop offset="0" stop-color="#515151" stop-opacity="0.495"/>
      <stop offset="0" stop-color="#515151" stop-opacity="0.495"/>
      <stop offset="1" stop-color="#FFFFFF" stop-opacity="0"/>
    </linearGradient>
  </defs>
  <g id="Basis" transform="translate(0, 0)">
    <path d="M0,0 L128,0 L128,128 L0,128 z" fill="#FF8A80"/>
    <path d="M97.926,38.672 L128,74.934 L66.144,125.699 L31.59,91.571 L97.926,38.672 z" fill="url(#Gradient_1)"/>
    <path d="M91.565,96.133 L91.171,111.62 L77.956,103.535 z" fill="#FFFFFF"/>
    <path d="M64,106.5 C40.528,106.5 21.5,87.472 21.5,64 C21.5,40.528 40.528,21.5 64,21.5 C87.472,21.5 106.5,40.528 106.5,64 C106.5,87.472 87.472,106.5 64,106.5 z" fill="#FFFFFF"/>
  </g>
  <g id="Switch_On" transform="translate(0, 0)">
    <path d="M56.076,71.846 L67.172,66.987 L71.572,55.803 L95.121,77.519 L80.695,93.397 L56.076,71.846 z" fill="url(#Gradient_2)"/>
    <g>
      <path d="M64,72.712 C59.188,72.712 55.288,68.812 55.288,64 C55.288,59.188 59.188,55.288 64,55.288 C68.812,55.288 72.712,59.188 72.712,64 C72.712,68.812 68.812,72.712 64,72.712 z" fill="#00A51B"/>
      <path d="M64,72.712 C59.188,72.712 55.288,68.812 55.288,64 C55.288,59.188 59.188,55.288 64,55.288 C68.812,55.288 72.712,59.188 72.712,64 C72.712,68.812 68.812,72.712 64,72.712 z" fill-opacity="0" stroke="#00A51B" stroke-width="5" stroke-linejoin="round"/>
    </g>
  </g>
</svg>
