<?xml version="1.0" encoding="UTF-8"?>
<!DOCTYPE svg PUBLIC "-//W3C//DTD SVG 1.1//EN" "http://www.w3.org/Graphics/SVG/1.1/DTD/svg11.dtd">
<svg version="1.1" xmlns="http://www.w3.org/2000/svg" xmlns:xlink="http://www.w3.org/1999/xlink" x="0" y="0" width="128" height="128" viewBox="0, 0, 128, 128">
  <defs>
    <linearGradient id="Gradient_1" gradientUnits="userSpaceOnUse" x1="83.861" y1="18.072" x2="199.938" y2="18.072" gradientTransform="matrix(0.707, 0.707, -0.707, 0.707, 0, 0)">
      <stop offset="0" stop-color="#000000" stop-opacity="0.495"/>
      <stop offset="1" stop-color="#000000" stop-opacity="0"/>
    </linearGradient>
  </defs>
  <g id="Layer_1">
    <path d="M0,0 L128,0 L128,128 L0,128 z" fill="#FF8A80"/>
    <path d="M94.493,43.384 L146.36,136.394 L54.183,156.408 L32.946,85.651 L94.493,43.384 z" fill="url(#Gradient_1)" display="none"/>
    <g>
      <path d="M64,166.099 C36.282,166.099 13.812,147.419 13.812,124.377 C13.812,101.335 36.282,82.655 64,82.655 C91.718,82.655 114.188,101.335 114.188,124.377 C114.188,147.419 91.718,166.099 64,166.099 z" fill="#80DEEA"/>
      <path d="M64,166.099 C36.282,166.099 13.812,147.419 13.812,124.377 C13.812,101.335 36.282,82.655 64,82.655 C91.718,82.655 114.188,101.335 114.188,124.377 C114.188,147.419 91.718,166.099 64,166.099 z" fill-opacity="0" stroke="#28BDD0" stroke-width="3"/>
    </g>
    <g>
      <g>
        <path d="M64,93.722 C44.25,93.722 28.24,75.042 28.24,52 C28.24,28.958 44.25,10.278 64,10.278 C83.75,10.278 99.76,28.958 99.76,52 C99.76,75.042 83.75,93.722 64,93.722 z" fill="#FFE0B2"/>
        <path d="M64,93.722 C44.25,93.722 28.24,75.042 28.24,52 C28.24,28.958 44.25,10.278 64,10.278 C83.75,10.278 99.76,28.958 99.76,52 C99.76,75.042 83.75,93.722 64,93.722 z" fill-opacity="0" stroke="#F5D099" stroke-width="3"/>
      </g>
      <path d="M64,10.278 C43.822,54.15 64,93.722 64,93.722" fill-opacity="0" stroke="#F5D099" stroke-width="2"/>
      <path d="M99.76,52 C44.123,68.724 28.24,54.15 28.24,54.15" fill-opacity="0" stroke="#F5D099" stroke-width="2"/>
      <path d="M69.867,51.529 C65.694,51.529 62.312,47.023 62.312,41.464 C62.312,35.904 65.694,31.398 69.867,31.398 C74.04,31.398 77.423,35.904 77.423,41.464 C77.423,47.023 74.04,51.529 69.867,51.529 z" fill="#FFFFFF" fill-opacity="0.428"/>
      <path d="M45.811,49.316 C42.596,49.316 39.989,45.801 39.989,41.464 C39.989,37.126 42.596,33.611 45.811,33.611 C49.026,33.611 51.632,37.126 51.632,41.464 C51.632,45.801 49.026,49.316 45.811,49.316 z" fill="#FFFFFF" fill-opacity="0.428"/>
    </g>
    <path d="M23.421,175.546 C11.742,175.546 2.275,156.867 2.275,133.825 C2.275,110.782 11.742,92.103 23.421,92.103 C35.099,92.103 44.566,110.782 44.566,133.825 C44.566,156.867 35.099,175.546 23.421,175.546 z" fill="#28BDD0"/>
    <path d="M102.354,175.546 C90.676,175.546 81.209,156.867 81.209,133.825 C81.209,110.782 90.676,92.103 102.354,92.103 C114.033,92.103 123.5,110.782 123.5,133.825 C123.5,156.867 114.033,175.546 102.354,175.546 z" fill="#28BDD0"/>
    <g>
      <path d="M22.325,82.239 L22.325,97.791" fill-opacity="0" stroke="#000000" stroke-width="2" stroke-linejoin="round"/>
      <path d="M25.925,82.239 L22.325,72.639 L18.725,82.239 z" fill="#000000" fill-opacity="1" stroke="#000000" stroke-width="2" stroke-opacity="1"/>
      <path d="M18.725,97.791 L22.325,107.391 L25.925,97.791 z" fill="#000000" fill-opacity="1" stroke="#000000" stroke-width="2" stroke-opacity="1"/>
    </g>
    <g>
      <path d="M102.354,82.239 L102.354,97.791" fill-opacity="0" stroke="#000000" stroke-width="2" stroke-linejoin="round"/>
      <path d="M105.954,82.239 L102.354,72.639 L98.754,82.239 z" fill="#000000" fill-opacity="1" stroke="#000000" stroke-width="2" stroke-opacity="1"/>
      <path d="M98.754,97.791 L102.354,107.391 L105.954,97.791 z" fill="#000000" fill-opacity="1" stroke="#000000" stroke-width="2" stroke-opacity="1"/>
    </g>
  </g>
</svg>
