<?xml version="1.0" encoding="UTF-8"?>
<!DOCTYPE svg PUBLIC "-//W3C//DTD SVG 1.1//EN" "http://www.w3.org/Graphics/SVG/1.1/DTD/svg11.dtd">
<svg version="1.1" xmlns="http://www.w3.org/2000/svg" xmlns:xlink="http://www.w3.org/1999/xlink" x="0" y="0" width="128" height="128" viewBox="0, 0, 128, 128">
  <defs>
    <linearGradient id="Gradient_1" gradientUnits="userSpaceOnUse" x1="104.545" y1="16.001" x2="181.205" y2="16.001" gradientTransform="matrix(0.707, 0.707, -0.707, 0.707, 0, 0)">
      <stop offset="0" stop-color="#000000" stop-opacity="0.495"/>
      <stop offset="1" stop-color="#000000" stop-opacity="0"/>
    </linearGradient>
  </defs>
  <g id="Layer_1">
    <path d="M0,0 L128,0 L128,128 L0,128 z" fill="#FF8A80"/>
    <path d="M90.228,57.622 L142.363,113.899 L89.199,167.063 L42.843,117.676 L90.228,57.622 z" fill="url(#Gradient_1)"/>
    <path d="M46.73,130.401 L45.531,110.118 C45.531,110.118 52.411,89.399 45.802,82.88 C37.833,75.02 26.088,60.439 26.727,58.064 C30.761,43.081 46.512,69.781 49.968,67.374 C52.09,65.895 51.174,57.845 51.479,45.357 C51.865,29.532 47.856,13.362 58.037,15.805 C62.839,16.958 62.376,16.879 62.839,44.234 C63.271,69.704 66.627,62.094 66.973,59.046 C67.479,54.592 74.169,54.722 74.364,58.64 C74.531,61.97 74.128,63.989 74.879,63.614 C75.933,63.086 74.798,59.318 76.109,58.167 C78.545,56.029 80.083,56.237 82.257,57.992 C83.09,58.664 80.804,63.162 83.109,63.546 C84.226,63.732 84.025,60.143 84.548,58.049 C85.028,56.13 90.83,56.21 91.354,59.358 C96.624,90.98 86.015,117.611 84.14,118.424 C49.684,133.367 61.192,132.343 61.192,132.343 L46.73,130.401 z" fill="#FFE0B2"/>
    <path d="M41.101,117.676 L90.834,119.016 L91.466,134.521 L42.045,130.516 L41.101,117.676 z" fill="#80DEEA"/>
    <path d="M33.467,108.402 L97.309,112.188 L95.542,120.262 L35.99,120.262 L33.467,108.402 z" fill="#28BDD0"/>
    <path d="M55.791,17.404 L57.619,17.404 C59.536,17.404 61.091,18.846 61.091,20.624 L61.091,20.624 C61.091,22.402 59.536,23.844 57.619,23.844 L55.791,23.844 C53.873,23.844 52.318,22.402 52.318,20.624 L52.318,20.624 C52.318,18.846 53.873,17.404 55.791,17.404 z" fill="#FFFAF4" fill-opacity="0.714"/>
    <path d="M31.443,55.531 L32.268,55.773 C33.134,56.028 33.226,57.508 32.474,59.079 L32.474,59.079 C31.721,60.649 30.41,61.716 29.544,61.462 L28.719,61.219 C27.854,60.965 27.762,59.485 28.514,57.914 L28.514,57.914 C29.266,56.343 30.578,55.276 31.443,55.531 z" fill="#FFFAF4" fill-opacity="0.714"/>
    <path d="M56.188,38.185 L57.823,38.185 C59.54,38.185 60.931,39.832 60.931,41.865 L60.931,41.865 C60.931,43.898 59.54,45.546 57.823,45.546 L56.188,45.546 C54.471,45.546 53.08,43.898 53.08,41.865 L53.08,41.865 C53.08,39.832 54.471,38.185 56.188,38.185 z" fill="#F5D099"/>
    <path d="M56.174,39.694 L57.937,39.694 C59.787,39.694 61.286,40.104 61.286,40.611 L61.286,40.611 C61.286,41.117 59.787,41.528 57.937,41.528 L56.174,41.528 C54.324,41.528 52.825,41.117 52.825,40.611 L52.825,40.611 C52.825,40.104 54.324,39.694 56.174,39.694 z" fill="#FFE0B2"/>
    <path d="M56.246,42.938 L58.072,42.938 C59.988,42.938 61.541,43.348 61.541,43.855 L61.541,43.855 C61.541,44.361 59.988,44.772 58.072,44.772 L56.246,44.772 C54.33,44.772 52.776,44.361 52.776,43.855 L52.776,43.855 C52.776,43.348 54.33,42.938 56.246,42.938 z" fill="#FFE0B2"/>
    <path d="M34.613,62.614 L36.002,61.749 C37.458,60.841 39.511,61.504 40.586,63.229 L40.586,63.229 C41.661,64.954 41.352,67.088 39.895,67.996 L38.507,68.862 C37.051,69.77 34.998,69.107 33.923,67.382 L33.923,67.382 C32.847,65.657 33.157,63.522 34.613,62.614 z" fill="#F5D099"/>
    <path d="M35.4,63.902 L36.896,62.97 C38.466,61.991 39.956,61.547 40.224,61.977 L40.224,61.977 C40.492,62.406 39.436,63.548 37.867,64.527 L36.37,65.459 C34.801,66.437 33.311,66.882 33.043,66.452 L33.043,66.452 C32.775,66.022 33.83,64.881 35.4,63.902 z" fill="#FFE0B2"/>
    <path d="M37.177,66.617 L38.726,65.651 C40.353,64.638 41.888,64.165 42.156,64.595 L42.156,64.595 C42.424,65.024 41.323,66.194 39.697,67.208 L38.147,68.174 C36.521,69.187 34.985,69.661 34.718,69.231 L34.718,69.231 C34.45,68.801 35.551,67.631 37.177,66.617 z" fill="#FFE0B2"/>
  </g>
</svg>
