<?xml version="1.0" encoding="UTF-8"?>
<!DOCTYPE svg PUBLIC "-//W3C//DTD SVG 1.1//EN" "http://www.w3.org/Graphics/SVG/1.1/DTD/svg11.dtd">
<svg version="1.1" xmlns="http://www.w3.org/2000/svg" xmlns:xlink="http://www.w3.org/1999/xlink" x="0" y="0" width="128" height="128" viewBox="0, 0, 128, 128">
  <defs>
    <linearGradient id="Gradient_1" gradientUnits="userSpaceOnUse" x1="99.917" y1="-14.799" x2="136.482" y2="-14.799" gradientTransform="matrix(0.707, 0.707, -0.707, 0.707, 0, 0)">
      <stop offset="0" stop-color="#000000" stop-opacity="0.495"/>
      <stop offset="1" stop-color="#FF8A80" stop-opacity="0"/>
    </linearGradient>
    <linearGradient id="Gradient_2" gradientUnits="userSpaceOnUse" x1="70.301" y1="14.816" x2="106.866" y2="14.816" gradientTransform="matrix(0.707, 0.707, -0.707, 0.707, 0, 0)">
      <stop offset="0" stop-color="#000000" stop-opacity="0.495"/>
      <stop offset="1" stop-color="#FF8A80" stop-opacity="0"/>
    </linearGradient>
    <linearGradient id="Gradient_3" gradientUnits="userSpaceOnUse" x1="86.237" y1="0.012" x2="122.802" y2="0.012" gradientTransform="matrix(0.707, 0.707, -0.707, 0.707, 0, 0)">
      <stop offset="0" stop-color="#000000" stop-opacity="0.495"/>
      <stop offset="1" stop-color="#FF8A80" stop-opacity="0"/>
    </linearGradient>
  </defs>
  <g id="Basis">
    <path d="M-0,0 L128,0 L128,128 L-0,128 z" fill="#FF8A80"/>
  </g>
  <g id="LooktAt" display="none">
    <path d="M99.941,54.707 L117.973,75.041 L92.633,95.186 L68.964,72.34 L99.941,54.707 z" fill="url(#Gradient_1)"/>
    <path d="M58.058,54.707 L76.09,75.041 L50.75,95.186 L27.081,72.34 L58.058,54.707 z" fill="url(#Gradient_2)"/>
    <g>
      <path d="M42.969,78.131 C32.07,78.131 23.235,71.804 23.235,64 C23.235,56.196 32.07,49.869 42.969,49.869 C53.868,49.869 62.703,56.196 62.703,64 C62.703,71.804 53.868,78.131 42.969,78.131 z" fill="#FFFFFF"/>
      <path d="M42.969,73.238 C37.867,73.238 33.731,69.102 33.731,64 C33.731,58.898 37.867,54.762 42.969,54.762 C48.071,54.762 52.208,58.898 52.208,64 C52.208,69.102 48.071,73.238 42.969,73.238 z" fill="#383838"/>
      <path d="M42.969,70.883 C39.168,70.883 36.086,67.801 36.086,64 C36.086,60.199 39.168,57.117 42.969,57.117 C46.77,57.117 49.852,60.199 49.852,64 C49.852,67.801 46.77,70.883 42.969,70.883 z" fill="#0085CF"/>
      <path d="M43.142,61.528 C39.341,61.528 37.045,68.048 37.045,64.247 C37.045,60.446 39.341,58.232 43.142,58.232 C46.943,58.232 48.91,60.446 48.91,64.247 C48.91,68.048 46.943,61.528 43.142,61.528 z" fill="#FFFFFF" fill-opacity="0.384"/>
    </g>
    <g>
      <path d="M85.031,78.131 C74.132,78.131 65.297,71.804 65.297,64 C65.297,56.196 74.132,49.869 85.031,49.869 C95.93,49.869 104.765,56.196 104.765,64 C104.765,71.804 95.93,78.131 85.031,78.131 z" fill="#FFFFFF"/>
      <path d="M85.031,73.238 C79.929,73.238 75.792,69.102 75.792,64 C75.792,58.898 79.929,54.762 85.031,54.762 C90.133,54.762 94.269,58.898 94.269,64 C94.269,69.102 90.133,73.238 85.031,73.238 z" fill="#383838"/>
      <path d="M85.031,70.883 C81.23,70.883 78.148,67.801 78.148,64 C78.148,60.199 81.23,57.117 85.031,57.117 C88.832,57.117 91.914,60.199 91.914,64 C91.914,67.801 88.832,70.883 85.031,70.883 z" fill="#0085CF"/>
      <path d="M85.204,61.528 C81.402,61.528 79.106,68.048 79.106,64.247 C79.106,60.446 81.402,58.232 85.204,58.232 C89.005,58.232 90.971,60.446 90.971,64.247 C90.971,68.048 89.005,61.528 85.204,61.528 z" fill="#FFFFFF" fill-opacity="0.384"/>
    </g>
  </g>
  <g id="Roll_Eyes">
    <path d="M79.795,55.507 L97.827,75.841 L72.486,95.986 L48.817,73.14 L79.795,55.507 z" fill="url(#Gradient_3)"/>
    <g>
      <path d="M64.168,94.287 C47.599,94.287 34.168,80.855 34.168,64.287 C34.168,47.718 47.599,34.287 64.168,34.287 C80.736,34.287 94.168,47.718 94.168,64.287 C94.168,80.855 80.736,94.287 64.168,94.287 z" fill-opacity="0" stroke="#1C1C1C" stroke-width="5"/>
      <path d="M5.096,5.865 L65.096,5.865 L65.096,65.865 L5.096,65.865 L5.096,5.865 z" fill="#FF8A80"/>
      <path d="M64,78.25 C53.101,78.25 44.266,71.923 44.266,64.119 C44.266,56.315 53.101,49.988 64,49.988 C74.899,49.988 83.734,56.315 83.734,64.119 C83.734,71.923 74.899,78.25 64,78.25 z" fill="#FFFFFF"/>
      <path d="M64,73.357 C58.898,73.357 54.762,69.221 54.762,64.119 C54.762,59.017 58.898,54.881 64,54.881 C69.102,54.881 73.238,59.017 73.238,64.119 C73.238,69.221 69.102,73.357 64,73.357 z" fill="#383838"/>
      <path d="M64,71.002 C60.199,71.002 57.117,67.92 57.117,64.119 C57.117,60.318 60.199,57.236 64,57.236 C67.801,57.236 70.883,60.318 70.883,64.119 C70.883,67.92 67.801,71.002 64,71.002 z" fill="#0085CF"/>
      <path d="M64.173,61.647 C60.371,61.647 58.075,68.168 58.075,64.366 C58.075,60.565 60.371,58.351 64.173,58.351 C67.974,58.351 69.94,60.565 69.94,64.366 C69.94,68.168 67.974,61.647 64.173,61.647 z" fill="#FFFFFF" fill-opacity="0.384"/>
    </g>
    <path d="M262.254,14.028 L261.928,14.028" fill-opacity="0" stroke="#FFE0B2" stroke-width="8"/>
    <path d="M65.339,40.554 L54.309,34.185 L65.339,27.817 z" fill="#1C1C1C"/>
  </g>
</svg>
