<?xml version="1.0" encoding="UTF-8"?>
<!DOCTYPE svg PUBLIC "-//W3C//DTD SVG 1.1//EN" "http://www.w3.org/Graphics/SVG/1.1/DTD/svg11.dtd">
<svg version="1.1" xmlns="http://www.w3.org/2000/svg" xmlns:xlink="http://www.w3.org/1999/xlink" x="0" y="0" width="128" height="128" viewBox="0, 0, 128, 128">
  <defs>
    <linearGradient id="Gradient_1" gradientUnits="userSpaceOnUse" x1="87.088" y1="0.257" x2="143.496" y2="0.257" gradientTransform="matrix(0.707, 0.707, -0.707, 0.707, 0, 0)">
      <stop offset="0" stop-color="#000000" stop-opacity="0.495"/>
      <stop offset="1" stop-color="#FF8A80" stop-opacity="0"/>
    </linearGradient>
    <linearGradient id="Gradient_2" gradientUnits="userSpaceOnUse" x1="91.653" y1="-1.389" x2="126.662" y2="-1.389" gradientTransform="matrix(0.707, 0.707, -0.707, 0.707, 0, 0)">
      <stop offset="0" stop-color="#515151" stop-opacity="0.495"/>
      <stop offset="0" stop-color="#515151" stop-opacity="0.495"/>
      <stop offset="0" stop-color="#515151" stop-opacity="0.495"/>
      <stop offset="1" stop-color="#FFFFFF" stop-opacity="0"/>
    </linearGradient>
  </defs>
  <g id="Basis" transform="translate(0, 0)">
    <path d="M0,0 L128,0 L128,128 L0,128 z" fill="#FF8A80"/>
    <path d="M97.926,38.672 L128,74.934 L66.144,125.699 L31.59,91.571 L97.926,38.672 z" fill="url(#Gradient_1)"/>
    <path d="M91.565,96.133 L91.171,111.62 L77.956,103.535 z" fill="#FFFFFF"/>
    <path d="M64,106.5 C40.528,106.5 21.5,87.472 21.5,64 C21.5,40.528 40.528,21.5 64,21.5 C87.472,21.5 106.5,40.528 106.5,64 C106.5,87.472 87.472,106.5 64,106.5 z" fill="#FFFFFF"/>
  </g>
  <g id="Confirm" transform="translate(0, 0)">
    <path d="M51.959,77.657 L83.742,52.015 L105.363,73.765 L73.445,101.245 L51.959,77.657 z" fill="url(#Gradient_2)"/>
    <path d="M45.421,65.816 L56.215,77.259 L82.579,50.741" fill-opacity="0" stroke="#00A51C" stroke-width="7"/>
  </g>
</svg>
