<?xml version="1.0" encoding="UTF-8"?>
<!DOCTYPE svg PUBLIC "-//W3C//DTD SVG 1.1//EN" "http://www.w3.org/Graphics/SVG/1.1/DTD/svg11.dtd">
<svg version="1.1" xmlns="http://www.w3.org/2000/svg" xmlns:xlink="http://www.w3.org/1999/xlink" x="0" y="0" width="128" height="128" viewBox="0, 0, 128, 128">
  <defs>
    <linearGradient id="Gradient_1" gradientUnits="userSpaceOnUse" x1="87.825" y1="1.081" x2="190.883" y2="1.081" gradientTransform="matrix(0.707, 0.707, -0.707, 0.707, 0, 0)">
      <stop offset="0" stop-color="#000000" stop-opacity="0.495"/>
      <stop offset="1" stop-color="#000000" stop-opacity="0"/>
    </linearGradient>
    <linearGradient id="Gradient_2" gradientUnits="userSpaceOnUse" x1="50.771" y1="76.992" x2="50.771" y2="76.992">
      <stop offset="0" stop-color="#000000" stop-opacity="0.495"/>
      <stop offset="1" stop-color="#000000" stop-opacity="0"/>
    </linearGradient>
    <linearGradient id="Gradient_3" gradientUnits="userSpaceOnUse" x1="55.382" y1="64" x2="97.945" y2="64">
      <stop offset="0" stop-color="#AB1500" stop-opacity="0.514"/>
      <stop offset="1" stop-color="#AB1500"/>
    </linearGradient>
  </defs>
  <g id="Layer_1">
    <path d="M0,0 L128,0 L128,128 L0,128 z" fill="#FF8A80"/>
    <path d="M90.308,33.894 L157.617,112.332 L90.402,149.873 L35.65,92.049 L90.308,33.894 z" fill="url(#Gradient_1)"/>
    <path d="M64,103.902 C41.963,103.902 24.098,86.037 24.098,64 C24.098,41.963 41.963,24.098 64,24.098 C86.037,24.098 103.902,41.963 103.902,64 C103.902,86.037 86.037,103.902 64,103.902 z" fill="#383838"/>
    <path d="M64,97.945 C45.253,97.945 30.055,82.747 30.055,64 C30.055,45.253 45.253,30.055 64,30.055 C82.747,30.055 97.945,45.253 97.945,64 C97.945,82.747 82.747,97.945 64,97.945 z" fill="#D11D00"/>
    <path d="M50.771,76.992" fill="url(#Gradient_2)"/>
    <path d="M64,97.945 C45.253,97.945 62.935,83.53 62.935,64.783 C62.935,46.036 45.253,30.055 64,30.055 C82.747,30.055 97.945,45.253 97.945,64 C97.945,82.747 82.747,97.945 64,97.945 z" fill="url(#Gradient_3)"/>
  </g>
</svg>
