<?xml version="1.0" encoding="UTF-8"?>
<!DOCTYPE svg PUBLIC "-//W3C//DTD SVG 1.1//EN" "http://www.w3.org/Graphics/SVG/1.1/DTD/svg11.dtd">
<svg version="1.1" xmlns="http://www.w3.org/2000/svg" xmlns:xlink="http://www.w3.org/1999/xlink" x="0" y="0" width="128" height="128" viewBox="0, 0, 128, 128">
  <defs>
    <linearGradient id="Gradient_1" gradientUnits="userSpaceOnUse" x1="87.088" y1="0.257" x2="143.496" y2="0.257" gradientTransform="matrix(0.707, 0.707, -0.707, 0.707, 0, 0)">
      <stop offset="0" stop-color="#000000" stop-opacity="0.495"/>
      <stop offset="1" stop-color="#FF8A80" stop-opacity="0"/>
    </linearGradient>
    <linearGradient id="Gradient_2" gradientUnits="userSpaceOnUse" x1="73.722" y1="-3.317" x2="122.865" y2="-3.317" gradientTransform="matrix(0.707, 0.707, -0.707, 0.707, 0, 0)">
      <stop offset="0" stop-color="#515151" stop-opacity="0.495"/>
      <stop offset="0" stop-color="#515151" stop-opacity="0.495"/>
      <stop offset="0" stop-color="#515151" stop-opacity="0.495"/>
      <stop offset="1" stop-color="#FFFFFF" stop-opacity="0"/>
    </linearGradient>
  </defs>
  <g id="Basis" transform="translate(0, 0)">
    <path d="M0,0 L128,0 L128,128 L0,128 z" fill="#FF8A80"/>
    <path d="M97.926,38.672 L128,74.934 L66.144,125.699 L31.59,91.571 L97.926,38.672 z" fill="url(#Gradient_1)"/>
    <path d="M91.565,96.133 L91.171,111.62 L77.956,103.535 z" fill="#FFFFFF"/>
    <path d="M64,106.5 C40.528,106.5 21.5,87.472 21.5,64 C21.5,40.528 40.528,21.5 64,21.5 C87.472,21.5 106.5,40.528 106.5,64 C106.5,87.472 87.472,106.5 64,106.5 z" fill="#FFFFFF"/>
  </g>
  <g id="Set_Level" transform="translate(0, 0)">
    <g>
      <path d="M64,81.321 L64,40.259 L64.975,40.259 L100.462,73.296 L77.956,95.741 L64,81.321 z" fill="url(#Gradient_2)"/>
      <path d="M64,81.321 C59.188,81.321 55.288,77.42 55.288,72.608 C55.288,67.796 59.188,63.896 64,63.896 C68.812,63.896 72.712,67.796 72.712,72.608 C72.712,77.42 68.812,81.321 64,81.321 z" fill="#727272"/>
      <g>
        <path d="M64,51.808 L64,40.259" fill-opacity="0" stroke="#727272" stroke-width="2" stroke-linejoin="round"/>
        <path d="M60.4,51.808 L64,61.408 L67.6,51.808 z" fill="#727272" fill-opacity="1" stroke="#727272" stroke-width="2" stroke-opacity="1"/>
      </g>
    </g>
  </g>
</svg>
