<?xml version="1.0" encoding="UTF-8"?>
<!DOCTYPE svg PUBLIC "-//W3C//DTD SVG 1.1//EN" "http://www.w3.org/Graphics/SVG/1.1/DTD/svg11.dtd">
<svg version="1.1" xmlns="http://www.w3.org/2000/svg" xmlns:xlink="http://www.w3.org/1999/xlink" x="0" y="0" width="128" height="128" viewBox="0, 0, 128, 128">
  <defs>
    <linearGradient id="Gradient_1" gradientUnits="userSpaceOnUse" x1="53.593" y1="17.389" x2="207.116" y2="17.389" gradientTransform="matrix(0.707, 0.707, -0.707, 0.707, 0, 0)">
      <stop offset="0" stop-color="#000000" stop-opacity="0.495"/>
      <stop offset="1" stop-color="#000000" stop-opacity="0"/>
    </linearGradient>
  </defs>
  <g id="Layer_1">
    <path d="M0,0 L128,0 L128,128 L0,128 z" fill="#FF8A80"/>
    <path d="M57.377,18.415 L158.476,134.431 L66.299,154.444 L45.062,83.688 L57.377,18.415 z" fill="url(#Gradient_1)"/>
    <g>
      <path d="M38.131,49.099 C28.587,9.191 42.138,25.817 49.144,20.272 C66.988,6.15 56.215,42.799 55.391,43.177 C39.531,50.448 44.866,49.862 44.866,49.862 L38.131,49.099 z" fill="#FFE0B2"/>
      <path d="M56.976,46.099 L35.417,45.342 L34.805,82.906 L31.797,96.439 L32.618,120.498 L43.944,155.128 L52.474,131.079 L53.794,106.153 L53.559,73.054 L56.976,46.099 z" fill="#80DEEA"/>
      <path d="M60.366,41.189 L30.95,42.34 L31.685,46.107 L59.091,46.673 L60.366,41.189 z" fill="#28BDD0"/>
    </g>
    <g>
      <g>
        <path d="M76.376,167.99 C56.626,167.99 40.616,149.31 40.616,126.268 C40.616,103.226 56.626,84.546 76.376,84.546 C96.126,84.546 112.137,103.226 112.137,126.268 C112.137,149.31 96.126,167.99 76.376,167.99 z" fill="#FFE0B2"/>
        <path d="M76.376,167.99 C56.626,167.99 40.616,149.31 40.616,126.268 C40.616,103.226 56.626,84.546 76.376,84.546 C96.126,84.546 112.137,103.226 112.137,126.268 C112.137,149.31 96.126,167.99 76.376,167.99 z" fill-opacity="0" stroke="#F5D099" stroke-width="3"/>
      </g>
      <path d="M76.376,84.546 C56.198,128.418 76.376,167.99 76.376,167.99" fill-opacity="0" stroke="#F5D099" stroke-width="2"/>
      <path d="M112.137,126.268 C56.499,142.992 40.616,128.418 40.616,128.418" fill-opacity="0" stroke="#F5D099" stroke-width="2"/>
      <path d="M82.244,125.797 C78.071,125.797 74.688,121.291 74.688,115.731 C74.688,110.172 78.071,105.666 82.244,105.666 C86.416,105.666 89.799,110.172 89.799,115.731 C89.799,121.291 86.416,125.797 82.244,125.797 z" fill="#FFFFFF" fill-opacity="0.428"/>
      <path d="M58.187,123.584 C54.972,123.584 52.365,120.069 52.365,115.731 C52.365,111.394 54.972,107.879 58.187,107.879 C61.402,107.879 64.009,111.394 64.009,115.731 C64.009,120.069 61.402,123.584 58.187,123.584 z" fill="#FFFFFF" fill-opacity="0.428"/>
    </g>
  </g>
</svg>
