<?xml version="1.0" encoding="UTF-8"?>
<!DOCTYPE svg PUBLIC "-//W3C//DTD SVG 1.1//EN" "http://www.w3.org/Graphics/SVG/1.1/DTD/svg11.dtd">
<svg version="1.1" xmlns="http://www.w3.org/2000/svg" xmlns:xlink="http://www.w3.org/1999/xlink" x="0" y="0" width="128" height="128" viewBox="0, 0, 128, 128">
  <defs>
    <linearGradient id="Gradient_1" gradientUnits="userSpaceOnUse" x1="31.494" y1="27.299" x2="187.552" y2="27.299" gradientTransform="matrix(0.707, 0.707, -0.707, 0.707, 0, 0)">
      <stop offset="0" stop-color="#000000" stop-opacity="0.495"/>
      <stop offset="1" stop-color="#000000" stop-opacity="0"/>
    </linearGradient>
  </defs>
  <g id="Layer_1">
    <path d="M0,0 L128,0 L128,128 L0,128 z" fill="#FF8A80"/>
    <path d="M113.951,59.811 L132.744,132.495 L-1.454,129.9 L-16.177,60.717 L113.951,59.811 z" fill="url(#Gradient_1)"/>
    <path d="M-0.501,52.485 L19.753,50.866 C19.753,50.866 40.61,57.317 46.99,50.575 C54.684,42.446 69.019,30.402 71.407,30.992 C86.47,34.715 60.101,51.014 62.58,54.42 C64.101,56.511 72.057,56.307 84.548,56.354 C100.378,56.413 116.192,53.053 114.304,61.422 C113.217,66.24 113.178,64.972 85.839,66.001 C60.383,66.958 67.58,67.993 70.635,68.276 C71.403,68.347 72.241,68.275 85.942,67.966 C104.355,67.55 114.545,65.896 114.097,72.036 C113.778,76.401 107.966,75.728 86.464,76.706 C66.072,77.634 66.569,78.671 68.566,78.929 C70.212,79.141 73.09,79.095 86.563,78.722 C108.804,78.107 111.252,76.254 111.646,82.55 C111.801,85.041 111.762,85.502 87.738,85.925 C67.328,86.285 66.441,86.639 68.95,87.292 C72.746,88.281 71.839,87.745 87.242,87.37 C97.281,87.126 106.157,86.203 105.534,92.274 C105.151,96.015 100.008,95.388 88.176,95.543 C69.209,95.793 68.623,96.132 67.226,96.336 C37.579,100.665 13.06,91.413 12.246,89.639 C-3.405,55.499 -2.144,66.983 -2.144,66.983 L-0.501,52.485 z" fill="#FFE0B2"/>
    <path d="M12.887,46.594 L12.411,96.347 L-4.967,97.338 L-1.495,47.835 L12.887,46.594 z" fill="#80DEEA"/>
    <path d="M22.766,39.064 L20.288,102.382 L12.178,100.799 L10.96,41.808 L22.766,39.064 z" fill="#28BDD0"/>
    <path d="M112.133,59.975 L112.159,61.236 C112.186,62.56 110.767,63.662 108.989,63.699 L108.989,63.699 C107.211,63.736 105.748,62.693 105.72,61.369 L105.694,60.108 C105.667,58.785 107.086,57.683 108.864,57.646 L108.864,57.646 C110.642,57.609 112.106,58.652 112.133,59.975 z" fill="#FFFAF4" fill-opacity="0.714"/>
    <path d="M73.819,35.655 L73.594,36.484 C73.357,37.355 71.879,37.477 70.293,36.758 L70.293,36.758 C68.707,36.038 67.613,34.749 67.85,33.878 L68.076,33.048 C68.312,32.178 69.79,32.055 71.376,32.775 L71.376,32.775 C72.962,33.495 74.056,34.784 73.819,35.655 z" fill="#FFFAF4" fill-opacity="0.714"/>
    <path d="M66.802,38.97 L67.696,40.34 C68.634,41.778 68.014,43.844 66.312,44.954 L66.312,44.954 C64.609,46.065 62.469,45.8 61.531,44.362 L60.637,42.992 C59.699,41.555 60.319,39.489 62.022,38.378 L62.022,38.378 C63.724,37.267 65.865,37.533 66.802,38.97 z" fill="#F5D099"/>
    <path d="M65.531,39.784 L66.494,41.26 C67.505,42.809 67.98,44.29 67.556,44.566 L67.556,44.566 C67.132,44.843 65.969,43.811 64.958,42.262 L63.995,40.786 C62.984,39.236 62.509,37.756 62.933,37.479 L62.933,37.479 C63.357,37.203 64.52,38.234 65.531,39.784 z" fill="#FFE0B2"/>
    <path d="M62.853,41.616 L63.851,43.145 C64.898,44.75 65.403,46.275 64.979,46.552 L64.979,46.552 C64.554,46.829 63.362,45.752 62.315,44.147 L61.317,42.618 C60.27,41.013 59.766,39.488 60.19,39.211 L60.19,39.211 C60.614,38.934 61.807,40.011 62.853,41.616 z" fill="#FFE0B2"/>
    <path d="M112.474,70.854 L112.5,72.124 C112.527,73.456 111.109,74.565 109.333,74.602 L109.333,74.602 C107.556,74.639 106.093,73.589 106.066,72.257 L106.04,70.987 C106.012,69.655 107.43,68.546 109.207,68.509 L109.207,68.509 C110.984,68.472 112.446,69.522 112.474,70.854 z" fill="#FFFAF4" fill-opacity="0.714"/>
    <path d="M110.233,81.182 L110.255,82.266 C110.279,83.404 108.959,84.355 107.309,84.389 L107.309,84.389 C105.658,84.423 104.301,83.528 104.277,82.39 L104.255,81.305 C104.231,80.167 105.55,79.217 107.201,79.182 L107.201,79.182 C108.852,79.148 110.209,80.043 110.233,81.182 z" fill="#FFFAF4" fill-opacity="0.714"/>
    <path d="M103.781,90.874 L103.801,91.837 C103.822,92.847 102.642,93.691 101.165,93.721 L101.165,93.721 C99.689,93.752 98.475,92.958 98.454,91.947 L98.434,90.984 C98.414,89.974 99.594,89.13 101.07,89.1 L101.07,89.1 C102.546,89.069 103.76,89.864 103.781,90.874 z" fill="#FFFAF4" fill-opacity="0.714"/>
    <g>
      <path d="M90.543,71.69 L90.57,72.7 C90.598,73.759 89.323,74.639 87.723,74.665 L87.723,74.665 C86.123,74.691 84.803,73.853 84.775,72.794 L84.749,71.784 C84.721,70.725 85.995,69.845 87.595,69.819 L87.595,69.819 C89.195,69.793 90.515,70.631 90.543,71.69 z" fill="#F5D099"/>
      <path d="M89.355,71.701 L89.384,72.789 C89.414,73.931 89.115,74.862 88.716,74.868 L88.716,74.868 C88.317,74.875 87.97,73.954 87.94,72.813 L87.911,71.724 C87.881,70.583 88.18,69.652 88.579,69.645 L88.579,69.645 C88.977,69.639 89.325,70.559 89.355,71.701 z" fill="#FFE0B2"/>
      <path d="M86.803,71.787 L86.832,72.914 C86.864,74.096 86.566,75.06 86.167,75.067 L86.167,75.067 C85.768,75.073 85.42,74.12 85.389,72.937 L85.359,71.81 C85.328,70.627 85.626,69.663 86.024,69.657 L86.024,69.657 C86.423,69.65 86.772,70.604 86.803,71.787 z" fill="#FFE0B2"/>
    </g>
    <g>
      <path d="M90.409,60.455 L90.436,61.701 C90.464,63.008 89.18,64.094 87.568,64.126 L87.568,64.126 C85.956,64.158 84.627,63.124 84.599,61.817 L84.572,60.571 C84.544,59.264 85.828,58.179 87.44,58.147 L87.44,58.147 C89.051,58.115 90.381,59.148 90.409,60.455 z" fill="#F5D099"/>
      <path d="M89.212,60.469 L89.241,61.811 C89.271,63.22 88.97,64.368 88.569,64.376 L88.569,64.376 C88.167,64.384 87.817,63.249 87.787,61.84 L87.758,60.498 C87.727,59.089 88.028,57.941 88.43,57.933 L88.43,57.933 C88.832,57.925 89.182,59.06 89.212,60.469 z" fill="#FFE0B2"/>
      <path d="M86.641,60.574 L86.671,61.965 C86.703,63.424 86.402,64.613 86.001,64.621 L86.001,64.621 C85.599,64.629 85.248,63.453 85.217,61.994 L85.187,60.603 C85.155,59.144 85.456,57.955 85.857,57.947 L85.857,57.947 C86.259,57.939 86.61,59.115 86.641,60.574 z" fill="#FFE0B2"/>
    </g>
    <g>
      <path d="M89.494,82.067 L89.517,83.028 C89.54,84.036 88.485,84.873 87.161,84.898 L87.161,84.898 C85.836,84.923 84.744,84.126 84.721,83.117 L84.699,82.157 C84.676,81.149 85.731,80.311 87.055,80.287 L87.055,80.287 C88.379,80.262 89.471,81.059 89.494,82.067 z" fill="#F5D099"/>
      <path d="M88.511,82.078 L88.535,83.113 C88.56,84.2 88.312,85.085 87.983,85.091 L87.983,85.091 C87.653,85.097 87.365,84.222 87.34,83.135 L87.316,82.1 C87.291,81.014 87.539,80.128 87.869,80.122 L87.869,80.122 C88.199,80.116 88.486,80.991 88.511,82.078 z" fill="#FFE0B2"/>
      <path d="M86.399,82.159 L86.424,83.232 C86.449,84.357 86.203,85.274 85.873,85.28 L85.873,85.28 C85.543,85.286 85.255,84.379 85.229,83.254 L85.204,82.182 C85.178,81.056 85.425,80.139 85.755,80.133 L85.755,80.133 C86.085,80.127 86.373,81.034 86.399,82.159 z" fill="#FFE0B2"/>
    </g>
    <g>
      <path d="M88.768,90.963 L88.792,92.029 C88.817,93.147 87.674,94.076 86.239,94.103 L86.239,94.103 C84.804,94.13 83.621,93.246 83.596,92.128 L83.572,91.062 C83.547,89.944 84.69,89.015 86.125,88.988 L86.125,88.988 C87.559,88.96 88.743,89.845 88.768,90.963 z" fill="#F5D099"/>
      <path d="M87.702,90.974 L87.728,92.123 C87.755,93.328 87.487,94.31 87.13,94.317 L87.13,94.317 C86.772,94.324 86.46,93.353 86.433,92.148 L86.408,90.999 C86.381,89.794 86.649,88.812 87.006,88.805 L87.006,88.805 C87.364,88.798 87.675,89.769 87.702,90.974 z" fill="#FFE0B2"/>
      <path d="M85.414,91.065 L85.441,92.254 C85.468,93.503 85.201,94.52 84.844,94.527 L84.844,94.527 C84.486,94.534 84.174,93.527 84.146,92.279 L84.119,91.09 C84.091,89.841 84.358,88.824 84.716,88.817 L84.716,88.817 C85.073,88.81 85.386,89.817 85.414,91.065 z" fill="#FFE0B2"/>
    </g>
    <g>
      <path d="M95.391,48.77 C88.487,48.77 82.891,43.173 82.891,36.27 C82.891,29.366 88.487,23.77 95.391,23.77 C102.294,23.77 107.891,29.366 107.891,36.27 C107.891,43.173 102.294,48.77 95.391,48.77 z" fill-opacity="0" stroke="#000000" stroke-width="3"/>
      <path d="M95.292,28.258 L95.292,35.514" fill-opacity="0" stroke="#000000" stroke-width="2"/>
      <path d="M94.3,36.27 L101.657,36.27" fill-opacity="0" stroke="#000000" stroke-width="2"/>
    </g>
  </g>
</svg>
