<?xml version="1.0" encoding="UTF-8"?>
<!DOCTYPE svg PUBLIC "-//W3C//DTD SVG 1.1//EN" "http://www.w3.org/Graphics/SVG/1.1/DTD/svg11.dtd">
<svg version="1.1" xmlns="http://www.w3.org/2000/svg" xmlns:xlink="http://www.w3.org/1999/xlink" x="0" y="0" width="128" height="128" viewBox="0, 0, 128, 128">
  <g id="Layer_1">
    <path d="M0,0 L128,0 L128,128 L0,128 z" fill="#FF8A80"/>
    <path d="M64,89 C50.193,89 39,77.807 39,64 C39,50.193 50.193,39 64,39 C77.807,39 89,50.193 89,64 C89,77.807 77.807,89 64,89 z" fill-opacity="0" stroke="#FAFAFA" stroke-width="5" stroke-opacity="0.8"/>
    <path d="M64,101.5 C43.289,101.5 26.5,84.711 26.5,64 C26.5,43.289 43.289,26.5 64,26.5 C84.711,26.5 101.5,43.289 101.5,64 C101.5,84.711 84.711,101.5 64,101.5 z" fill-opacity="0" stroke="#FAFAFA" stroke-width="5" stroke-opacity="0.6"/>
    <path d="M44,20.89 L64.484,20.89 L84,20.89 L84,28.25 L84,35.89 L63.647,35.89 L44,35.89 L44,28.112 L44,20.89 z" fill="#FF8A80"/>
    <path d="M49,35.569 L64.363,35.569 L79,35.569 L79,63.369 L79,92.222 L63.735,92.222 L49,92.222 L49,62.847 L49,35.569 z" fill="#FF8A80"/>
    <path d="M44,91.838 L64.484,91.838 L84,91.838 L84,99.198 L84,106.838 L63.647,106.838 L44,106.838 L44,99.06 L44,91.838 z" fill="#FF8A80"/>
    <path d="M37.874,9.28 L63.479,9.28 L87.874,9.28 L87.874,16.64 L87.874,24.28 L62.432,24.28 L37.874,24.28 L37.874,16.502 L37.874,9.28 z" fill="#FF8A80"/>
    <path d="M39,103.564 L64.605,103.564 L89,103.564 L89,110.925 L89,118.564 L63.558,118.564 L39,118.564 L39,110.786 L39,103.564 z" fill="#FF8A80"/>
    <path d="M64,76.5 C57.096,76.5 51.5,70.904 51.5,64 C51.5,57.096 57.096,51.5 64,51.5 C70.904,51.5 76.5,57.096 76.5,64 C76.5,70.904 70.904,76.5 64,76.5 z" fill="#FFFFFF"/>
  </g>
</svg>
